<?xml version="1.0" ?><svg data-name="Layer 1" id="Layer_1" viewBox="0 0 64 64" xmlns="http://www.w3.org/2000/svg"><path d="M23,50a1,1,0,0,1,1-1H39.1316l-.9636-1.4453a1,1,0,1,1,1.664-1.1094l2,3a.9669.9669,0,0,1,.0514.1091.9317.9317,0,0,1,0,.8912.9669.9669,0,0,1-.0514.1091l-2,3a1,1,0,1,1-1.664-1.1094L39.1316,51H24A1,1,0,0,1,23,50ZM51,3V61a3.0033,3.0033,0,0,1-3,3H16a3.0033,3.0033,0,0,1-3-3V3a3.0033,3.0033,0,0,1,3-3H48A3.0033,3.0033,0,0,1,51,3ZM21.4774,2l.9484,2.3711A.9942.9942,0,0,0,23.354,5H40.646a.9942.9942,0,0,0,.9282-.6289L42.5226,2ZM49,3a1.0013,1.0013,0,0,0-1-1H44.6774L43.4316,5.1143A2.9861,2.9861,0,0,1,40.646,7H23.354a2.9861,2.9861,0,0,1-2.7856-1.8857L19.3226,2H16a1.0013,1.0013,0,0,0-1,1V61a1.0013,1.0013,0,0,0,1,1H48a1.0013,1.0013,0,0,0,1-1ZM45,44V56a1,1,0,0,1-1,1H20a1,1,0,0,1-1-1V44a1,1,0,0,1,1-1H44A1,1,0,0,1,45,44Zm-2,1H21V55H43ZM24,25h1V38a1,1,0,0,0,2,0V25h1a5.0059,5.0059,0,0,0,5-5V10a1,1,0,0,0-2,0V20a2.995,2.995,0,0,1-2,2.8157V11a1,1,0,0,0-2,0V23H25V11a1,1,0,0,0-2,0V22.8157A2.995,2.995,0,0,1,21,20V10a1,1,0,0,0-2,0V20A5.0059,5.0059,0,0,0,24,25ZM45,10V38a1,1,0,0,1-2,0V33H36a1,1,0,0,1-1-1V18a9.01,9.01,0,0,1,9-9A1,1,0,0,1,45,10Zm-2,1.0713A7.0106,7.0106,0,0,0,37,18V31h6Z"/></svg>